<mxfile host="Electron" modified="2023-07-13T22:26:05.652Z" agent="Mozilla/5.0 (Windows NT 10.0; Win64; x64) AppleWebKit/537.36 (KHTML, like Gecko) draw.io/21.6.1 Chrome/112.0.5615.204 Electron/24.6.1 Safari/537.36" etag="hvejZ1UgIc9EIIRmBwJI" version="21.6.1" type="device">
  <diagram name="Page-1" id="J7e5yIz6yFn3zIY_tBrs">
    <mxGraphModel dx="1050" dy="1721" grid="1" gridSize="10" guides="1" tooltips="1" connect="1" arrows="1" fold="1" page="1" pageScale="1" pageWidth="850" pageHeight="1100" math="0" shadow="0">
      <root>
        <mxCell id="0" />
        <mxCell id="1" parent="0" />
        <mxCell id="nMqpxgn26UyKG6sjdpUJ-1" value="" style="ellipse;whiteSpace=wrap;html=1;" vertex="1" parent="1">
          <mxGeometry x="365" y="-100" width="120" height="80" as="geometry" />
        </mxCell>
        <mxCell id="nMqpxgn26UyKG6sjdpUJ-2" value="user launches app" style="text;html=1;strokeColor=none;fillColor=none;align=center;verticalAlign=middle;whiteSpace=wrap;rounded=0;" vertex="1" parent="1">
          <mxGeometry x="395" y="-75" width="60" height="30" as="geometry" />
        </mxCell>
        <mxCell id="nMqpxgn26UyKG6sjdpUJ-3" value="" style="rounded=1;whiteSpace=wrap;html=1;" vertex="1" parent="1">
          <mxGeometry x="365" y="190" width="120" height="60" as="geometry" />
        </mxCell>
        <mxCell id="nMqpxgn26UyKG6sjdpUJ-4" value="ask user to type in a game&#39;s name" style="text;html=1;strokeColor=none;fillColor=none;align=center;verticalAlign=middle;whiteSpace=wrap;rounded=0;" vertex="1" parent="1">
          <mxGeometry x="395" y="205" width="60" height="30" as="geometry" />
        </mxCell>
        <mxCell id="nMqpxgn26UyKG6sjdpUJ-6" value="look for the games name in the list" style="text;html=1;strokeColor=none;fillColor=none;align=center;verticalAlign=middle;whiteSpace=wrap;rounded=0;" vertex="1" parent="1">
          <mxGeometry x="397.5" y="380" width="60" height="30" as="geometry" />
        </mxCell>
        <mxCell id="nMqpxgn26UyKG6sjdpUJ-7" value="" style="endArrow=classic;html=1;rounded=0;" edge="1" parent="1">
          <mxGeometry width="50" height="50" relative="1" as="geometry">
            <mxPoint x="424" y="110" as="sourcePoint" />
            <mxPoint x="424" y="180" as="targetPoint" />
          </mxGeometry>
        </mxCell>
        <mxCell id="nMqpxgn26UyKG6sjdpUJ-8" value="" style="endArrow=classic;html=1;rounded=0;" edge="1" parent="1">
          <mxGeometry width="50" height="50" relative="1" as="geometry">
            <mxPoint x="430" y="270" as="sourcePoint" />
            <mxPoint x="430" y="340" as="targetPoint" />
          </mxGeometry>
        </mxCell>
        <mxCell id="nMqpxgn26UyKG6sjdpUJ-9" value="" style="rhombus;whiteSpace=wrap;html=1;" vertex="1" parent="1">
          <mxGeometry x="370" y="345" width="115" height="100" as="geometry" />
        </mxCell>
        <mxCell id="nMqpxgn26UyKG6sjdpUJ-10" value="&#xa;&lt;span style=&quot;color: rgb(0, 0, 0); font-family: Helvetica; font-size: 12px; font-style: normal; font-variant-ligatures: normal; font-variant-caps: normal; font-weight: 400; letter-spacing: normal; orphans: 2; text-align: center; text-indent: 0px; text-transform: none; widows: 2; word-spacing: 0px; -webkit-text-stroke-width: 0px; background-color: rgb(251, 251, 251); text-decoration-thickness: initial; text-decoration-style: initial; text-decoration-color: initial; float: none; display: inline !important;&quot;&gt;look for the games name in the list&lt;/span&gt;&#xa;&#xa;" style="text;html=1;strokeColor=none;fillColor=none;align=center;verticalAlign=middle;whiteSpace=wrap;rounded=0;" vertex="1" parent="1">
          <mxGeometry x="400" y="380" width="60" height="30" as="geometry" />
        </mxCell>
        <mxCell id="nMqpxgn26UyKG6sjdpUJ-14" value="not found" style="text;html=1;strokeColor=none;fillColor=none;align=center;verticalAlign=middle;whiteSpace=wrap;rounded=0;" vertex="1" parent="1">
          <mxGeometry x="485" y="380" width="60" height="30" as="geometry" />
        </mxCell>
        <mxCell id="nMqpxgn26UyKG6sjdpUJ-16" value="" style="endArrow=classic;html=1;rounded=0;" edge="1" parent="1">
          <mxGeometry width="50" height="50" relative="1" as="geometry">
            <mxPoint x="490" y="390" as="sourcePoint" />
            <mxPoint x="610" y="300" as="targetPoint" />
          </mxGeometry>
        </mxCell>
        <mxCell id="nMqpxgn26UyKG6sjdpUJ-17" value="" style="rounded=1;whiteSpace=wrap;html=1;" vertex="1" parent="1">
          <mxGeometry x="620" y="250" width="120" height="60" as="geometry" />
        </mxCell>
        <mxCell id="nMqpxgn26UyKG6sjdpUJ-18" value="would you like to go to loader or try to get another game" style="text;html=1;strokeColor=none;fillColor=none;align=center;verticalAlign=middle;whiteSpace=wrap;rounded=0;" vertex="1" parent="1">
          <mxGeometry x="640" y="265" width="90" height="30" as="geometry" />
        </mxCell>
        <mxCell id="nMqpxgn26UyKG6sjdpUJ-19" value="" style="rhombus;whiteSpace=wrap;html=1;" vertex="1" parent="1">
          <mxGeometry x="380" y="10" width="90" height="100" as="geometry" />
        </mxCell>
        <mxCell id="nMqpxgn26UyKG6sjdpUJ-20" value="priloadscrea click a if you want to continue or click the homebutton to go back" style="text;html=1;strokeColor=none;fillColor=none;align=center;verticalAlign=middle;whiteSpace=wrap;rounded=0;" vertex="1" parent="1">
          <mxGeometry x="390" y="45" width="60" height="30" as="geometry" />
        </mxCell>
        <mxCell id="nMqpxgn26UyKG6sjdpUJ-21" value="a was clicked" style="text;html=1;strokeColor=none;fillColor=none;align=center;verticalAlign=middle;whiteSpace=wrap;rounded=0;" vertex="1" parent="1">
          <mxGeometry x="370" y="130" width="60" height="30" as="geometry" />
        </mxCell>
        <mxCell id="nMqpxgn26UyKG6sjdpUJ-22" value="" style="curved=1;endArrow=classic;html=1;rounded=0;entryX=1;entryY=0.5;entryDx=0;entryDy=0;" edge="1" parent="1" target="nMqpxgn26UyKG6sjdpUJ-1">
          <mxGeometry width="50" height="50" relative="1" as="geometry">
            <mxPoint x="470" y="70" as="sourcePoint" />
            <mxPoint x="580" y="-40" as="targetPoint" />
            <Array as="points">
              <mxPoint x="520" y="70" />
              <mxPoint x="580" y="10" />
              <mxPoint x="570" y="-20" />
              <mxPoint x="590" y="-60" />
              <mxPoint x="470" y="20" />
              <mxPoint x="560" y="-50" />
              <mxPoint x="580" y="-30" />
            </Array>
          </mxGeometry>
        </mxCell>
        <mxCell id="nMqpxgn26UyKG6sjdpUJ-23" value="if&amp;nbsp; home was clicked" style="text;html=1;strokeColor=none;fillColor=none;align=center;verticalAlign=middle;whiteSpace=wrap;rounded=0;" vertex="1" parent="1">
          <mxGeometry x="600" width="60" height="30" as="geometry" />
        </mxCell>
        <mxCell id="nMqpxgn26UyKG6sjdpUJ-24" value="" style="endArrow=classic;html=1;rounded=0;" edge="1" parent="1">
          <mxGeometry width="50" height="50" relative="1" as="geometry">
            <mxPoint x="660" y="230" as="sourcePoint" />
            <mxPoint x="570" y="20" as="targetPoint" />
          </mxGeometry>
        </mxCell>
        <mxCell id="nMqpxgn26UyKG6sjdpUJ-25" value="" style="endArrow=classic;html=1;rounded=0;exitX=0.083;exitY=-0.02;exitDx=0;exitDy=0;exitPerimeter=0;entryX=1;entryY=0.25;entryDx=0;entryDy=0;" edge="1" parent="1" source="nMqpxgn26UyKG6sjdpUJ-17" target="nMqpxgn26UyKG6sjdpUJ-3">
          <mxGeometry width="50" height="50" relative="1" as="geometry">
            <mxPoint x="410" y="250" as="sourcePoint" />
            <mxPoint x="460" y="200" as="targetPoint" />
          </mxGeometry>
        </mxCell>
        <mxCell id="nMqpxgn26UyKG6sjdpUJ-26" value="" style="endArrow=classic;html=1;rounded=0;exitX=0;exitY=0.5;exitDx=0;exitDy=0;" edge="1" parent="1" source="nMqpxgn26UyKG6sjdpUJ-9">
          <mxGeometry width="50" height="50" relative="1" as="geometry">
            <mxPoint x="240" y="410" as="sourcePoint" />
            <mxPoint x="210" y="390" as="targetPoint" />
          </mxGeometry>
        </mxCell>
        <mxCell id="nMqpxgn26UyKG6sjdpUJ-27" value="game found" style="text;html=1;strokeColor=none;fillColor=none;align=center;verticalAlign=middle;whiteSpace=wrap;rounded=0;" vertex="1" parent="1">
          <mxGeometry x="280" y="350" width="60" height="30" as="geometry" />
        </mxCell>
        <mxCell id="nMqpxgn26UyKG6sjdpUJ-28" value="" style="rhombus;whiteSpace=wrap;html=1;" vertex="1" parent="1">
          <mxGeometry x="90" y="330" width="120" height="110" as="geometry" />
        </mxCell>
        <mxCell id="nMqpxgn26UyKG6sjdpUJ-29" value="what storage device do you want to use" style="text;html=1;strokeColor=none;fillColor=none;align=center;verticalAlign=middle;whiteSpace=wrap;rounded=0;" vertex="1" parent="1">
          <mxGeometry x="120" y="360" width="60" height="30" as="geometry" />
        </mxCell>
        <mxCell id="nMqpxgn26UyKG6sjdpUJ-30" value="" style="endArrow=classic;html=1;rounded=0;" edge="1" parent="1">
          <mxGeometry width="50" height="50" relative="1" as="geometry">
            <mxPoint x="150" y="330" as="sourcePoint" />
            <mxPoint x="150" y="190" as="targetPoint" />
          </mxGeometry>
        </mxCell>
        <mxCell id="nMqpxgn26UyKG6sjdpUJ-31" value="" style="rounded=1;whiteSpace=wrap;html=1;" vertex="1" parent="1">
          <mxGeometry x="90" y="130" width="120" height="60" as="geometry" />
        </mxCell>
        <mxCell id="nMqpxgn26UyKG6sjdpUJ-32" value="set storage to sd card" style="text;html=1;strokeColor=none;fillColor=none;align=center;verticalAlign=middle;whiteSpace=wrap;rounded=0;" vertex="1" parent="1">
          <mxGeometry x="120" y="145" width="60" height="30" as="geometry" />
        </mxCell>
        <mxCell id="nMqpxgn26UyKG6sjdpUJ-33" value="" style="endArrow=classic;html=1;rounded=0;exitX=0.5;exitY=1;exitDx=0;exitDy=0;" edge="1" parent="1" source="nMqpxgn26UyKG6sjdpUJ-28">
          <mxGeometry width="50" height="50" relative="1" as="geometry">
            <mxPoint x="150" y="520" as="sourcePoint" />
            <mxPoint x="150" y="530" as="targetPoint" />
          </mxGeometry>
        </mxCell>
        <mxCell id="nMqpxgn26UyKG6sjdpUJ-34" value="" style="rounded=1;whiteSpace=wrap;html=1;" vertex="1" parent="1">
          <mxGeometry x="90" y="540" width="120" height="60" as="geometry" />
        </mxCell>
        <mxCell id="nMqpxgn26UyKG6sjdpUJ-35" value="set storage to usb drive" style="text;html=1;strokeColor=none;fillColor=none;align=center;verticalAlign=middle;whiteSpace=wrap;rounded=0;" vertex="1" parent="1">
          <mxGeometry x="120" y="555" width="60" height="30" as="geometry" />
        </mxCell>
        <mxCell id="nMqpxgn26UyKG6sjdpUJ-36" value="" style="endArrow=classic;html=1;rounded=0;exitX=0;exitY=0.75;exitDx=0;exitDy=0;" edge="1" parent="1" source="nMqpxgn26UyKG6sjdpUJ-31">
          <mxGeometry width="50" height="50" relative="1" as="geometry">
            <mxPoint x="30" y="180" as="sourcePoint" />
            <mxPoint x="40" y="740" as="targetPoint" />
          </mxGeometry>
        </mxCell>
        <mxCell id="nMqpxgn26UyKG6sjdpUJ-37" value="" style="endArrow=classic;html=1;rounded=0;exitX=0.393;exitY=0.96;exitDx=0;exitDy=0;exitPerimeter=0;" edge="1" parent="1" source="nMqpxgn26UyKG6sjdpUJ-34">
          <mxGeometry width="50" height="50" relative="1" as="geometry">
            <mxPoint x="150" y="690" as="sourcePoint" />
            <mxPoint x="100" y="750" as="targetPoint" />
          </mxGeometry>
        </mxCell>
        <mxCell id="nMqpxgn26UyKG6sjdpUJ-39" value="check for wbfs file" style="text;html=1;strokeColor=none;fillColor=none;align=center;verticalAlign=middle;whiteSpace=wrap;rounded=0;" vertex="1" parent="1">
          <mxGeometry x="40" y="745" width="60" height="30" as="geometry" />
        </mxCell>
        <mxCell id="nMqpxgn26UyKG6sjdpUJ-40" value="" style="rhombus;whiteSpace=wrap;html=1;" vertex="1" parent="1">
          <mxGeometry x="30" y="720" width="80" height="80" as="geometry" />
        </mxCell>
        <mxCell id="nMqpxgn26UyKG6sjdpUJ-41" value="&#xa;&lt;span style=&quot;color: rgb(0, 0, 0); font-family: Helvetica; font-size: 12px; font-style: normal; font-variant-ligatures: normal; font-variant-caps: normal; font-weight: 400; letter-spacing: normal; orphans: 2; text-align: center; text-indent: 0px; text-transform: none; widows: 2; word-spacing: 0px; -webkit-text-stroke-width: 0px; background-color: rgb(251, 251, 251); text-decoration-thickness: initial; text-decoration-style: initial; text-decoration-color: initial; float: none; display: inline !important;&quot;&gt;check for wbfs file&lt;/span&gt;&#xa;&#xa;" style="text;html=1;strokeColor=none;fillColor=none;align=center;verticalAlign=middle;whiteSpace=wrap;rounded=0;" vertex="1" parent="1">
          <mxGeometry x="40" y="745" width="60" height="30" as="geometry" />
        </mxCell>
        <mxCell id="nMqpxgn26UyKG6sjdpUJ-45" value="" style="endArrow=classic;html=1;rounded=0;exitX=0.5;exitY=1;exitDx=0;exitDy=0;" edge="1" parent="1" source="nMqpxgn26UyKG6sjdpUJ-40">
          <mxGeometry width="50" height="50" relative="1" as="geometry">
            <mxPoint x="70" y="870" as="sourcePoint" />
            <mxPoint x="70" y="860" as="targetPoint" />
          </mxGeometry>
        </mxCell>
        <mxCell id="nMqpxgn26UyKG6sjdpUJ-46" value="" style="rounded=1;whiteSpace=wrap;html=1;" vertex="1" parent="1">
          <mxGeometry x="10" y="870" width="120" height="60" as="geometry" />
        </mxCell>
        <mxCell id="nMqpxgn26UyKG6sjdpUJ-47" value="say please make a wbfs file in your storage device to download the game" style="text;html=1;strokeColor=none;fillColor=none;align=center;verticalAlign=middle;whiteSpace=wrap;rounded=0;" vertex="1" parent="1">
          <mxGeometry x="20" y="885" width="90" height="30" as="geometry" />
        </mxCell>
        <mxCell id="nMqpxgn26UyKG6sjdpUJ-49" value="" style="endArrow=classic;html=1;rounded=0;" edge="1" parent="1">
          <mxGeometry width="50" height="50" relative="1" as="geometry">
            <mxPoint x="110" y="760" as="sourcePoint" />
            <mxPoint x="220" y="760" as="targetPoint" />
          </mxGeometry>
        </mxCell>
        <mxCell id="nMqpxgn26UyKG6sjdpUJ-50" value="" style="rounded=1;whiteSpace=wrap;html=1;" vertex="1" parent="1">
          <mxGeometry x="230" y="730" width="120" height="60" as="geometry" />
        </mxCell>
        <mxCell id="nMqpxgn26UyKG6sjdpUJ-51" value="begin download" style="text;html=1;strokeColor=none;fillColor=none;align=center;verticalAlign=middle;whiteSpace=wrap;rounded=0;" vertex="1" parent="1">
          <mxGeometry x="260" y="745" width="60" height="30" as="geometry" />
        </mxCell>
        <mxCell id="nMqpxgn26UyKG6sjdpUJ-52" value="" style="endArrow=classic;html=1;rounded=0;" edge="1" parent="1">
          <mxGeometry width="50" height="50" relative="1" as="geometry">
            <mxPoint x="350" y="760" as="sourcePoint" />
            <mxPoint x="470" y="760" as="targetPoint" />
          </mxGeometry>
        </mxCell>
        <mxCell id="nMqpxgn26UyKG6sjdpUJ-53" value="" style="rounded=1;whiteSpace=wrap;html=1;" vertex="1" parent="1">
          <mxGeometry x="470" y="730" width="120" height="60" as="geometry" />
        </mxCell>
        <mxCell id="nMqpxgn26UyKG6sjdpUJ-54" value="when download complete print instructions" style="text;html=1;strokeColor=none;fillColor=none;align=center;verticalAlign=middle;whiteSpace=wrap;rounded=0;" vertex="1" parent="1">
          <mxGeometry x="500" y="745" width="60" height="30" as="geometry" />
        </mxCell>
      </root>
    </mxGraphModel>
  </diagram>
</mxfile>
